<svg width="61" height="60" viewBox="0 0 61 60" fill="none" xmlns="http://www.w3.org/2000/svg">
<path d="M13.1358 55.8902C15.2083 55.8902 16.8887 54.2103 16.8887 52.1372C16.8887 50.0647 15.2083 48.3843 13.1358 48.3843C11.0632 48.3843 9.38281 50.0647 9.38281 52.1372C9.38281 54.2103 11.0632 55.8902 13.1358 55.8902ZM13.1358 50.2608C14.1721 50.2608 15.0123 51.101 15.0123 52.1372C15.0123 53.1735 14.1721 54.0137 13.1358 54.0137C12.0995 54.0137 11.2593 53.1735 11.2593 52.1372C11.2593 51.101 12.0995 50.2608 13.1358 50.2608Z" fill="#906E50"/>
<path d="M54.418 57.7665V23.4767L30.0237 7.86419L8.9724 21.3368L8.47304 17.5838C9.5336 16.9607 10.3623 16.0097 10.8338 14.874L30.0237 2.58658L58.6035 20.8768L59.615 19.2986L30.0237 0.358255L11.242 12.3818C11.0619 6.63229 6.54799 1.11004 6.35192 0.873646L5.62945 0L4.9079 0.875479C4.70541 1.11829 0 6.89067 0 12.7309C0.00320689 14.7269 1.06285 16.5722 2.78586 17.5806L0.946488 31.3729L0.938242 59.643H2.81473V32.4339H8.44418V43.7767L6.96351 44.6311H4.69121V59.643H49.7268V44.6311H47.7069L45.1634 35.1699L43.1591 35.7068V22.1133H16.8884V38.9013L10.3207 42.6937V31.4957L9.24452 23.3905L30.0237 10.0916L52.5415 24.5033V59.643H60.0475V57.7665H54.418ZM2.94804 30.5575L4.58813 18.26C5.27578 18.3938 5.98312 18.3938 6.67077 18.26L8.31086 30.5575H2.94804ZM6.56769 16.3505V12.7309H4.69121V16.3505C3.03921 15.924 1.8829 14.4369 1.87648 12.7309C1.87648 8.86565 4.36365 4.83735 5.62945 3.03783C6.898 4.83185 9.38242 8.84595 9.38242 12.7309C9.376 14.4369 8.21969 15.924 6.56769 16.3505ZM29.0855 57.7665H21.5796V46.5076H29.0855V57.7665ZM38.4679 57.7665H30.962V46.5076H38.4679V57.7665ZM47.8503 46.5076V57.7665H40.3444V46.5076H47.8503ZM43.8385 37.4678L45.7636 44.6311H17.1156L43.8385 37.4678ZM30.962 23.9898H41.2826V33.0382L37.723 26.8741L30.962 30.7774V23.9898ZM18.7648 23.9898H29.0855V31.4957H18.7648V23.9898ZM18.7648 33.3722H26.4659L18.7648 37.8188V33.3722ZM37.0363 29.4373L40.9917 36.2863L11.4531 44.2073L37.0363 29.4373ZM19.7031 46.5076V57.7665H6.56769V46.5076H19.7031Z" fill="#906E50"/>
</svg>
